<?xml version="1.0" encoding="UTF-8" standalone="no"?>
<svg
   xmlns:dc="http://purl.org/dc/elements/1.1/"
   xmlns:cc="http://creativecommons.org/ns#"
   xmlns:rdf="http://www.w3.org/1999/02/22-rdf-syntax-ns#"
   xmlns:svg="http://www.w3.org/2000/svg"
   xmlns="http://www.w3.org/2000/svg"
   xmlns:sodipodi="http://sodipodi.sourceforge.net/DTD/sodipodi-0.dtd"
   xmlns:inkscape="http://www.inkscape.org/namespaces/inkscape"
   version="1.1"
   id="svg2"
   xml:space="preserve"
   width="467.30667"
   height="348.57333"
   viewBox="0 0 467.30667 348.57333"
   sodipodi:docname="fn_logo_stacked_CMYK.eps"><metadata
     id="metadata8"><rdf:RDF><cc:Work
         rdf:about=""><dc:format>image/svg+xml</dc:format><dc:type
           rdf:resource="http://purl.org/dc/dcmitype/StillImage" /></cc:Work></rdf:RDF></metadata><defs
     id="defs6" /><sodipodi:namedview
     pagecolor="#ffffff"
     bordercolor="#666666"
     borderopacity="1"
     objecttolerance="10"
     gridtolerance="10"
     guidetolerance="10"
     inkscape:pageopacity="0"
     inkscape:pageshadow="2"
     inkscape:window-width="640"
     inkscape:window-height="480"
     id="namedview4" /><g
     id="g10"
     inkscape:groupmode="layer"
     inkscape:label="ink_ext_XXXXXX"
     transform="matrix(1.3333333,0,0,-1.3333333,0,348.57333)"><g
       id="g12"
       transform="scale(0.1)"><path
         d="m 0,0 v 304.23 c 0,26.34 21.3477,47.688 47.6875,47.688 H 251.023 V 283.73 H 87.2773 c -8.5039,0 -15.3984,-6.89 -15.3984,-15.39 v -41.16 c 0,-8.43 6.832,-15.262 15.2656,-15.262 H 235.543 V 143.73 H 86.8164 c -8.2461,0 -14.9375,-6.691 -14.9375,-14.929 L 71.8789,0 H 0"
         style="fill:#f1531d;fill-opacity:1;fill-rule:nonzero;stroke:none"
         id="path14" /><path
         d="M 392.887,0 H 318.52 v 351.918 h 74.367 V 0"
         style="fill:#f1531d;fill-opacity:1;fill-rule:nonzero;stroke:none"
         id="path16" /><path
         d="M 537.074,351.918 H 736.273 V 283.73 H 575.168 c -8.25,0 -14.938,-6.691 -14.938,-14.941 v -41.93 c 0,-8.25 6.688,-14.941 14.938,-14.941 H 720.777 V 143.73 H 575.168 c -8.25,0 -14.938,-6.691 -14.938,-14.929 V 83.1289 c 0,-8.25 6.688,-14.9375 14.938,-14.9375 H 736.273 V 0 H 537.074 C 508.793,0 485.863,22.9297 485.863,51.2109 V 300.711 c 0,28.277 22.93,51.207 51.211,51.207"
         style="fill:#f1531d;fill-opacity:1;fill-rule:nonzero;stroke:none"
         id="path18" /><path
         d="m 816.82,351.918 h 74.387 V 83.1289 c 0,-8.25 6.684,-14.9375 14.938,-14.9375 H 1059.83 L 1059.83,0 H 868.031 C 839.75,0 816.82,22.9297 816.82,51.2109 V 351.918"
         style="fill:#f1531d;fill-opacity:1;fill-rule:nonzero;stroke:none"
         id="path20" /><path
         d="m 1323.22,267.41 c 0,9.02 -7.3,16.32 -16.31,16.32 H 1211 c -4.78,0 -8.65,-3.859 -8.65,-8.64 V 76.8281 c 0,-4.7773 3.87,-8.6367 8.65,-8.6367 h 95.31 c 9.34,0 16.91,7.5703 16.91,16.9102 z m -195.24,84.508 h 219.56 c 27.65,0 50.07,-22.418 50.07,-50.066 V 50.0703 C 1397.61,22.4102 1375.19,0 1347.54,0 h -219.56 v 351.918"
         style="fill:#f1531d;fill-opacity:1;fill-rule:nonzero;stroke:none"
         id="path22" /><path
         d="m 1920.72,0 h -38.65 c -20.85,0 -40.4,10.1406 -52.42,27.168 l -121.33,172.031 c -4.87,6.903 -15.72,3.449 -15.72,-4.988 V 0 h -71.9 v 351.918 h 38.55 c 20.91,0 40.5,-10.188 52.51,-27.309 l 121.33,-172.98 c 4.85,-6.918 15.72,-3.481 15.72,4.961 v 195.328 h 71.91 V 0"
         style="fill:#f1531d;fill-opacity:1;fill-rule:nonzero;stroke:none"
         id="path24" /><path
         d="m 3504.84,0 h -38.65 c -20.85,0 -40.4,10.1406 -52.43,27.168 l -121.33,172.031 c -4.87,6.903 -15.72,3.449 -15.72,-4.988 V 0 h -71.89 v 351.918 h 38.54 c 20.91,0 40.5,-10.188 52.51,-27.309 l 121.34,-172.98 c 4.86,-6.918 15.72,-3.481 15.72,4.961 v 195.328 h 71.91 V 0"
         style="fill:#f1531d;fill-opacity:1;fill-rule:nonzero;stroke:none"
         id="path26" /><path
         d="m 2113.66,156.199 h 76.45 c 4.53,0 7.62,4.59 5.91,8.789 l -36.13,88.774 c -2.92,7.187 -13.09,7.187 -16.02,0 l -36.13,-88.774 c -1.71,-4.199 1.38,-8.789 5.92,-8.789 z M 2326.06,0 h -75 l -26.47,79.9297 c -1.97,5.9492 -7.52,9.9687 -13.78,9.9687 h -118.33 c -6.33,0 -11.94,-4.0976 -13.85,-10.1289 L 2053.32,0 h -75 l 127.73,322.25 c 7.09,17.91 24.4,29.668 43.67,29.668 h 4.95 c 19.27,0 36.58,-11.758 43.67,-29.668 L 2326.06,0"
         style="fill:#f1531d;fill-opacity:1;fill-rule:nonzero;stroke:none"
         id="path28" /><path
         d="m 2312.4,351.918 h 298.76 V 283.73 h -97.94 c -7.87,0 -14.25,-6.378 -14.25,-14.25 V 0 h -74.39 v 269.48 c 0,7.872 -6.38,14.25 -14.25,14.25 h -97.93 v 68.188"
         style="fill:#f1531d;fill-opacity:1;fill-rule:nonzero;stroke:none"
         id="path30" /><path
         d="m 2744.39,0 h -74.38 v 351.918 h 74.38 V 0"
         style="fill:#f1531d;fill-opacity:1;fill-rule:nonzero;stroke:none"
         id="path32" /><path
         d="m 3041.27,267.602 c 0,9.316 -7.45,16.128 -16.72,16.128 h -99.18 c -9.3,0 -16.73,-6.812 -16.73,-16.128 V 84.3203 c 0,-9.3203 7.43,-16.1289 16.73,-16.1289 h 99.18 c 9.27,0 16.72,6.8086 16.72,16.1289 z M 2834.24,68.1914 V 283.73 c 0,37.821 29.76,68.188 67.58,68.188 h 145.66 c 37.8,0 68.18,-30.367 68.18,-68.188 V 68.1914 C 3115.66,30.3711 3085.28,0 3047.48,0 h -145.66 c -37.82,0 -67.58,30.3711 -67.58,68.1914"
         style="fill:#f1531d;fill-opacity:1;fill-rule:nonzero;stroke:none"
         id="path34" /><path
         d="m 2759.18,2575.97 c 0,1.68 -1.4,3.36 -3.35,3.36 h -16.52 v -18.75 h 16.52 c 1.95,0 3.35,1.4 3.35,3.37 z m -7.83,-22.93 h -12.04 v -22.66 h -8.67 v 56.51 h 27.42 c 5.32,0 9.52,-4.2 9.52,-9.51 v -14.83 c 0,-4.76 -3.08,-8.4 -7.28,-9.51 l 12.31,-22.66 h -9.23 z m 38.89,-28.26 v 67.42 c 0,6.44 -5.61,11.47 -12.32,11.47 h -58.18 c -6.73,0 -12.04,-5.03 -12.04,-11.47 v -67.42 c 0,-6.72 5.31,-11.75 12.04,-11.75 h 58.18 c 6.71,0 12.32,5.03 12.32,11.75 z m -93.44,0.56 v 66.3 c 0,12.31 8.95,22.66 22.37,22.66 h 59.04 c 13.7,0 22.94,-10.35 22.94,-22.66 v -66.3 c 0,-12.31 -9.24,-22.66 -22.94,-22.66 h -59.04 c -13.42,0 -22.37,10.35 -22.37,22.66"
         style="fill:#f1531d;fill-opacity:1;fill-rule:nonzero;stroke:none"
         id="path36" /><path
         d="M 2637.56,2455.29 H 1222.55 c -85.74,0 -155.25,-69.5 -155.25,-155.25 V 1037.16 c 0,-85.738 69.51,-155.242 155.25,-155.242 h 481.42 v 516.452 h 450.79 v 518.54 h 482.8 v 538.38"
         style="fill:#f1531d;fill-opacity:1;fill-rule:nonzero;stroke:none"
         id="path38" /><path
         d="m 1147.75,1916.91 h 1007.04 v -209.32 c 0,0 -191.79,206.68 -1007.04,206.68 v 2.64"
         style="fill:#cc3a22;fill-opacity:1;fill-rule:nonzero;stroke:none"
         id="path40" /><path
         d="m 1147.72,1398.37 h 556.25 v -113.71 c 0,0 -159.93,104.77 -556.25,111.07 v 2.64"
         style="fill:#cc3a22;fill-opacity:1;fill-rule:nonzero;stroke:none"
         id="path42" /></g></g></svg>
