<?xml version="1.0" encoding="UTF-8" standalone="no"?>
<svg
   xmlns:dc="http://purl.org/dc/elements/1.1/"
   xmlns:cc="http://creativecommons.org/ns#"
   xmlns:rdf="http://www.w3.org/1999/02/22-rdf-syntax-ns#"
   xmlns:svg="http://www.w3.org/2000/svg"
   xmlns="http://www.w3.org/2000/svg"
   xmlns:sodipodi="http://sodipodi.sourceforge.net/DTD/sodipodi-0.dtd"
   xmlns:inkscape="http://www.inkscape.org/namespaces/inkscape"
   version="1.1"
   id="svg2"
   xml:space="preserve"
   width="905.96002"
   height="206.57333"
   viewBox="0 0 905.96002 206.57333"
   sodipodi:docname="nagios-logo.eps"><metadata
     id="metadata8"><rdf:RDF><cc:Work
         rdf:about=""><dc:format>image/svg+xml</dc:format><dc:type
           rdf:resource="http://purl.org/dc/dcmitype/StillImage" /></cc:Work></rdf:RDF></metadata><defs
     id="defs6" /><sodipodi:namedview
     pagecolor="#ffffff"
     bordercolor="#666666"
     borderopacity="1"
     objecttolerance="10"
     gridtolerance="10"
     guidetolerance="10"
     inkscape:pageopacity="0"
     inkscape:pageshadow="2"
     inkscape:window-width="640"
     inkscape:window-height="480"
     id="namedview4" /><g
     id="g10"
     inkscape:groupmode="layer"
     inkscape:label="ink_ext_XXXXXX"
     transform="matrix(1.3333333,0,0,-1.3333333,0,206.57333)"><g
       id="g12"
       transform="scale(0.1)"><path
         d="m 0,89.3008 c 37.3359,64.0002 112.004,96.0002 181.332,80.0002 165.34,-16 336.004,-16 501.336,5.328 53.332,5.332 112,5.332 165.336,0 85.332,-10.66 170.666,-15.988 255.996,-21.328 26.67,0 53.33,-5.34 80,-10.672 21.33,-5.328 42.67,-21.328 48,-42.6681 5.33,-26.6601 -5.33,-53.332 -32,-58.6601 -21.33,-10.6719 -48,-21.3399 -74.67,-21.3399 -90.66,0 -181.33,10.668 -277.326,10.668 -80,0 -160,0 -240,-5.3281 C 496,14.6289 389.336,14.6289 277.336,25.3008 218.668,30.6289 154.668,25.3008 96,30.6289 58.668,25.3008 21.332,41.3008 0,67.9609 v 21.3399"
         style="fill:#4089F9;fill-opacity:1;fill-rule:nonzero;stroke:none"
         id="path14" /><path
         d="m 1232,1177.3 c 5.33,-69.33 5.33,-138.67 10.67,-207.999 0,-42.668 0,-90.668 -5.34,-133.336 -10.66,-90.66 -10.66,-186.664 0,-282.66 5.34,-42.676 5.34,-80.004 -5.33,-122.676 -5.33,-58.66 -53.33,-101.328 -112,-96 0,0 0,0 -5.33,0 -69.34,5.332 -133.338,16 -197.334,26.672 -48,16 -90.664,48 -112.004,90.668 -26.664,37.332 -53.328,80 -74.664,117.332 -37.332,74.656 -85.336,138.66 -143.996,197.332 -32.004,37.332 -64.004,80 -90.672,122.668 -5.332,10.664 -10.668,21.332 -21.332,31.996 -16,16 -37.332,21.332 -58.668,10.668 -5.332,-5.332 -10.668,-10.668 -16,-21.332 -5.332,-16 -5.332,-32 -5.332,-48.004 0,-95.996 -5.332,-186.66 -5.332,-282.664 0,-16.008 -5.336,-32.004 -10.668,-47.996 -21.332,-37.34 -21.332,-80 -5.332,-117.34 10.664,-21.34 0,-53.328 -21.332,-64 -5.332,0 -10.672,-5.328 -10.672,-5.328 -69.328,-26.66 -149.328,-26.66 -213.328,5.328 -37.336,16 -58.6681,53.34 -58.6681,90.672 0,69.328 -5.3359,133.332 -5.3359,202.656 -5.332,42.676 10.668,85.344 42.672,112.012 15.992,10.664 26.664,26.66 31.996,42.664 21.332,32 21.332,69.336 -5.332,96 -64.0001,80 -90.6719,181.327 -74.668,282.667 C 64,1246.63 64,1310.63 64,1379.96 c 0,16 0,32 0,48.01 -5.332,31.99 16,63.99 48.004,69.33 10.66,0 21.332,0 26.664,0 53.336,0 101.332,10.67 149.336,26.66 47.996,21.34 101.332,0 122.664,-42.66 0,-5.34 5.332,-5.34 5.332,-10.67 5.332,-16 16.004,-32 21.336,-53.33 10.668,-32 32,-53.34 63.996,-64 32.004,-10.67 58.668,-32 74.668,-64 64,-90.67 128,-186.67 192.004,-277.34 21.332,-26.659 42.664,-53.327 69.332,-79.995 26.664,-26.664 47.996,-16 53.332,21.336 10.664,58.659 10.664,117.329 10.664,175.999 -5.332,90.66 -5.332,181.33 5.34,277.33 -10.672,48 21.332,96 74.66,106.67 16.004,0 26.668,0 42.668,0 21.33,0 42.67,0 69.33,-5.33 64,5.33 128,-42.67 138.67,-106.67 5.33,-26.67 10.67,-53.33 10.67,-80 -10.67,-42.67 -10.67,-90.67 -10.67,-144 v 0"
         style="fill:#4089F9;fill-opacity:1;fill-rule:nonzero;stroke:none"
         id="path16" /><path
         d="m 3312,782.629 c -5.33,37.336 -16,74.668 -26.67,112.004 -21.33,69.336 -85.33,117.327 -154.67,117.327 -69.32,-10.66 -127.99,-58.659 -143.99,-127.991 0,-5.336 -5.33,-10.668 -5.33,-16 0,-53.336 0,-101.336 5.33,-149.344 5.33,-58.66 48,-106.66 101.33,-117.324 58.67,-16.004 128.01,0 170.67,48 31.99,32 53.33,85.332 53.33,133.328 z m -613.33,64.004 c -5.34,64 0,133.332 16,191.997 32,101.33 122.66,170.67 224,181.33 96,16 197.33,0 277.33,-58.66 10.67,-5.34 16,-10.67 26.67,-16 26.67,-21.33 58.67,-16 80,10.66 0,0 0,0 5.33,5.34 69.33,53.33 165.33,64 245.33,21.33 53.34,-37.33 69.34,-106.67 48.01,-165.33 C 3584,931.965 3578.66,830.633 3600,739.965 c 10.66,-63.996 16.01,-128 21.34,-186.66 5.33,-69.336 10.66,-138.676 15.99,-208.004 0,-69.332 -21.32,-138.672 -64,-192 C 3530.66,99.9609 3482.67,57.3008 3424,25.3008 3392,3.96875 3354.67,-1.35938 3317.33,14.6289 c -74.66,32 -160,32 -234.66,5.332 -64,-21.32028 -128,-26.66012 -192.01,-10.66012 -85.33,16.00002 -160,74.66802 -191.99,154.66822 -21.34,32 -21.34,74.672 5.33,101.332 26.66,26.668 69.33,32 101.33,16 10.67,-5.332 21.34,-5.332 26.67,-10.66 10.67,-5.34 16,-10.68 26.67,-16.012 85.33,-32 176,-53.328 261.33,-80 80,-21.328 154.67,26.672 176.01,106.672 0,5.328 5.33,10.668 5.33,21.328 5.33,37.332 5.33,74.672 5.33,117.332 0,21.34 -16.01,42.668 -37.33,42.668 -5.34,0 -16.01,0 -21.34,-5.328 -31.99,-10.672 -58.66,-21.332 -90.67,-37.34 -53.33,-31.992 -112,-42.66 -170.66,-31.992 -85.33,10.672 -154.67,69.332 -186.67,154.66 -16,48.008 -42.67,90.664 -74.67,133.34 -15.99,21.328 -21.33,42.668 -21.33,69.336 -10.67,21.328 -5.33,63.996 -5.33,101.328"
         style="fill:#4089F9;fill-opacity:1;fill-rule:nonzero;stroke:none"
         id="path18" /><path
         d="m 1904,489.301 c 10.67,0 21.33,0 32,0 74.67,32 149.33,58.66 218.67,90.664 26.66,10.672 32,42.664 21.33,69.336 -5.33,5.332 -10.67,10.664 -16,16.004 -37.33,47.988 -96,74.66 -154.67,53.32 -21.33,5.344 -48,0 -69.33,0 -26.66,0 -53.33,-5.332 -80,-5.332 -53.33,-15.996 -85.33,-69.324 -74.67,-122.656 0,-48.008 37.34,-90.676 85.34,-96.008 16,0 26.66,0 37.33,-5.328 z m -416,80 c 0,16.004 0,32 0,47.996 -5.33,85.332 53.33,160 138.67,165.332 16,0 26.66,0 42.67,0 10.66,0 21.33,0 31.99,-5.332 42.67,-10.664 85.34,0 122.67,26.672 48,37.328 112,58.66 170.67,58.66 26.66,0 58.66,5.34 85.33,16.004 53.33,10.668 85.33,69.336 74.67,122.667 v 0 c 0,37.33 -32,64 -69.34,64 0,0 0,0 -5.33,0 -101.33,5.33 -202.67,-26.67 -282.67,-95.999 -10.66,-10.668 -26.66,-21.332 -42.66,-21.332 -58.67,0 -117.34,5.332 -176,16 -42.67,5.332 -74.67,42.661 -69.33,85.331 5.33,26.66 21.33,48 42.66,58.67 90.67,80 213.33,111.99 330.67,101.33 64,-10.67 133.33,-10.67 197.33,5.33 154.67,16 304,-85.33 336.01,-239.997 5.33,-26.664 0,-58.668 -10.68,-85.332 -21.33,-58.668 -15.99,-122.668 10.68,-181.34 10.66,-26.66 10.66,-58.66 5.33,-90.664 -10.68,-47.996 -10.68,-95.996 0,-143.996 15.99,-42.672 -5.33,-96 -48.01,-112 -16,-5.332 -32,-5.332 -42.66,-5.332 -32,0 -64,0 -96,0 -37.34,-5.34 -74.67,5.332 -101.34,31.992 -21.33,21.34 -53.33,26.668 -74.66,5.34 v 0 c -10.67,-10.672 -21.34,-16 -37.34,-21.332 -96,-21.34 -197.33,-42.668 -293.33,-53.328 -42.67,0 -85.33,5.328 -122.67,26.66 -69.33,21.328 -117.33,90.668 -112,165.328 -5.33,21.34 -5.33,42.676 -5.33,58.672"
         style="fill:#4089F9;fill-opacity:1;fill-rule:nonzero;stroke:none"
         id="path20" /><path
         d="m 5093.33,750.637 c 5.34,63.996 -5.33,127.996 -37.32,181.328 -37.34,74.665 -133.34,106.665 -208.01,69.335 -16,-10.667 -31.99,-21.335 -48,-37.331 -85.33,-106.672 -96,-256.008 -26.67,-373.332 48.01,-58.668 122.68,-80.008 192,-58.668 69.34,21.336 117.34,79.996 122.67,154.664 5.33,26.66 5.33,48 5.33,64.004 z m 336.01,37.332 c -5.34,-90.672 -26.67,-176.004 -64.01,-256 -26.66,-48 -69.32,-90.668 -117.33,-117.34 -31.99,-21.328 -69.33,-26.668 -106.66,-15.988 -37.34,15.988 -85.33,5.328 -112,-26.672 -32.01,-32.008 -74.67,-42.668 -117.34,-26.668 -53.33,10.668 -106.67,16 -165.33,16 -42.67,0 -80,16 -112,42.668 -42.67,32 -85.33,63.992 -128,90.66 -26.67,16 -42.67,48 -48,80.004 -5.34,63.992 -16,127.996 -42.66,186.668 -26.67,80 -10.68,160 42.66,224 5.33,10.664 21.33,21.329 31.99,26.659 48.01,16.01 90.68,48 112.01,96.01 26.67,63.99 96,101.33 165.33,80 10.67,-5.33 26.67,-5.33 37.33,0 90.68,10.66 176.01,10.66 266.67,0 128,0 245.33,-74.67 298.66,-192.005 37.34,-69.332 58.68,-138.668 58.68,-207.996"
         style="fill:#4089F9;fill-opacity:1;fill-rule:nonzero;stroke:none"
         id="path22" /><path
         d="m 6032,1230.63 c 69.34,-5.33 138.66,-10.67 208,-26.66 42.67,-10.67 80,-26.67 117.33,-53.34 21.33,-16 37.34,-32 48,-53.33 21.34,-26.67 16.01,-64 -10.66,-80 -10.67,-5.34 -21.34,-10.67 -32,-10.67 -80,-31.997 -170.67,-26.665 -240,16.01 -26.67,15.99 -53.33,26.66 -85.34,31.99 -37.33,10.67 -74.66,0 -106.67,-21.33 -26.66,-16 -37.33,-53.335 -21.32,-79.999 5.33,-10.664 10.66,-16.004 21.32,-21.336 5.34,-5.332 16.01,-10.664 26.67,-16 69.34,-26.664 144.01,-42.664 218.67,-47.996 42.66,0 90.67,-10.672 128,-37.336 32,-21.332 64,-37.332 96,-53.336 58.66,-26.66 90.66,-80 90.66,-144.004 -5.33,-138.664 -58.66,-229.324 -192,-250.664 -53.33,-5.328 -101.33,-16 -143.99,-42.668 -16.01,-5.332 -32,-10.66 -48,-10.66 -42.67,-5.332 -90.67,-5.332 -133.34,-10.66 -101.33,5.328 -202.67,37.328 -298.66,85.328 -10.67,5.332 -21.34,15.992 -26.67,26.66 -37.34,21.34 -42.67,69.332 -21.33,106.672 10.66,21.336 31.99,32 58.66,32 53.33,10.664 112,16.004 170.67,10.664 32,-5.332 58.67,-26.66 74.66,-47.996 42.67,-42.668 106.67,-58.668 165.34,-48 26.67,5.332 53.34,10.66 74.66,26.66 32.01,16 48,58.672 32.01,90.672 -5.34,15.996 -21.33,26.66 -37.34,31.992 -10.66,5.332 -21.33,5.332 -32,10.676 -37.33,15.996 -74.67,32 -111.99,47.996 -48.01,32.004 -106.67,42.668 -165.34,37.336 -101.33,-16.008 -197.34,42.664 -229.33,133.328 -32,96.004 0,202.671 80,261.341 69.33,58.66 160,90.66 250.66,90.66 16,5.33 42.67,10.67 74.67,16"
         style="fill:#4089F9;fill-opacity:1;fill-rule:nonzero;stroke:none"
         id="path24" /><path
         d="m 4176.01,862.629 c 0,-26.664 0,-53.328 0,-80 5.33,-106.66 21.32,-213.328 21.32,-320 5.34,-63.988 -37.33,-122.668 -106.67,-128 -10.66,0 -21.32,0 -31.99,0 -106.67,0 -192,80 -192,186.672 0,32.004 5.33,64.004 21.33,95.996 26.67,58.672 32,117.336 16,181.336 -16,85.336 -26.67,170.668 -37.33,261.327 0,21.34 0,42.68 5.33,69.34 5.33,48 48,80 96,80 37.33,0 80,0 117.33,0 58.67,0 106.67,-48 101.34,-106.66 v -5.34 c 0,-26.67 0,-48 0,-74.66 10.66,-10.68 -5.33,-112.007 -10.66,-160.011"
         style="fill:#4089F9;fill-opacity:1;fill-rule:nonzero;stroke:none"
         id="path26" /><path
         d="m 4042.67,1545.3 h 16 c 58.66,5.33 111.99,-37.33 117.34,-96 5.33,-26.67 -5.35,-58.67 -21.34,-80 -10.67,-21.33 -37.34,-37.34 -58.66,-37.34 -42.68,0 -80,0 -122.68,5.34 -48,0 -85.33,42.66 -85.33,85.33 0,5.34 0,5.34 0,10.67 0,53.33 42.66,101.33 96,112 21.33,5.33 37.34,5.33 58.67,0 v 0 0"
         style="fill:#4089F9;fill-opacity:1;fill-rule:nonzero;stroke:none"
         id="path28" /><path
         d="m 6645.33,1118.63 c -69.33,0 -122.66,53.33 -122.66,122.67 0,69.33 53.33,122.67 122.66,122.67 69.34,0 122.67,-53.34 122.67,-122.67 v 0 c 0,-69.34 -53.33,-122.67 -122.67,-122.67 z m 0,272 c -80,0 -149.33,-64 -149.33,-149.33 0,-85.34 64,-149.34 149.33,-149.34 80,0 149.34,64 149.34,149.34 v 0 c 0,80 -69.34,149.33 -149.34,149.33 z m 16.01,-122.66 c 0,-5.33 -5.34,-5.33 -5.34,-5.33 -5.34,0 -5.34,0 -10.67,0 h -15.99 v 37.32 h 15.99 c 5.33,0 10.67,0 16.01,-5.33 5.33,-5.33 5.33,-10.66 5.33,-10.66 0,-10.67 0,-16 -5.33,-16 z m 31.99,-53.34 c 0,5.33 -5.33,5.33 -5.33,10.67 -5.33,5.33 -5.33,5.33 -10.67,5.33 5.34,0 10.67,5.33 16,5.33 5.34,5.34 10.67,10.67 16.01,16 5.33,5.34 5.33,16.01 5.33,26.67 0,10.67 0,21.33 -5.33,26.67 -5.34,5.33 -10.67,10.66 -16.01,16 -10.66,5.33 -21.33,5.33 -31.99,5.33 H 6592 v -170.67 h 42.67 v 69.34 h 5.33 c 5.33,0 5.33,0 10.66,-5.34 5.35,-5.33 5.35,-10.66 5.35,-10.66 l 21.32,-53.34 h 48 l -21.33,48.01 c -5.34,5.33 -10.67,10.66 -10.67,10.66"
         style="fill:#4089F9;fill-opacity:1;fill-rule:nonzero;stroke:none"
         id="path30" /></g></g></svg>
